<svg width="12" height="20" viewBox="0 0 12 20" fill="none" xmlns="http://www.w3.org/2000/svg">
<path d="M7.83333 9.08334H6.91667V5.41668H8.75C8.99312 5.41668 9.22627 5.51325 9.39818 5.68516C9.57009 5.85707 9.66667 6.09023 9.66667 6.33334C9.66667 6.57646 9.76324 6.80962 9.93515 6.98152C10.1071 7.15343 10.3402 7.25001 10.5833 7.25001C10.8264 7.25001 11.0596 7.15343 11.2315 6.98152C11.4034 6.80962 11.5 6.57646 11.5 6.33334C11.5 5.604 11.2103 4.90452 10.6945 4.3888C10.1788 3.87307 9.47935 3.58334 8.75 3.58334H6.91667V1.75001C6.91667 1.5069 6.82009 1.27374 6.64818 1.10183C6.47627 0.929921 6.24312 0.833344 6 0.833344C5.75689 0.833344 5.52373 0.929921 5.35182 1.10183C5.17991 1.27374 5.08333 1.5069 5.08333 1.75001V3.58334H4.16667C3.19421 3.58334 2.26157 3.96965 1.57394 4.65728C0.886308 5.34492 0.5 6.27755 0.5 7.25001C0.5 8.22247 0.886308 9.1551 1.57394 9.84274C2.26157 10.5304 3.19421 10.9167 4.16667 10.9167H5.08333V14.5833H3.25C3.00688 14.5833 2.77373 14.4868 2.60182 14.3149C2.42991 14.143 2.33333 13.9098 2.33333 13.6667C2.33333 13.4236 2.23676 13.1904 2.06485 13.0185C1.89294 12.8466 1.65978 12.75 1.41667 12.75C1.17355 12.75 0.940394 12.8466 0.768486 13.0185C0.596577 13.1904 0.5 13.4236 0.5 13.6667C0.5 14.396 0.789731 15.0955 1.30546 15.6112C1.82118 16.1269 2.52065 16.4167 3.25 16.4167H5.08333V18.25C5.08333 18.4931 5.17991 18.7263 5.35182 18.8982C5.52373 19.0701 5.75689 19.1667 6 19.1667C6.24312 19.1667 6.47627 19.0701 6.64818 18.8982C6.82009 18.7263 6.91667 18.4931 6.91667 18.25V16.4167H7.83333C8.80579 16.4167 9.73842 16.0304 10.4261 15.3427C11.1137 14.6551 11.5 13.7225 11.5 12.75C11.5 11.7775 11.1137 10.8449 10.4261 10.1573C9.73842 9.46965 8.80579 9.08334 7.83333 9.08334ZM5.08333 9.08334H4.16667C3.68044 9.08334 3.21412 8.89019 2.8703 8.54637C2.52649 8.20256 2.33333 7.73624 2.33333 7.25001C2.33333 6.76378 2.52649 6.29746 2.8703 5.95365C3.21412 5.60983 3.68044 5.41668 4.16667 5.41668H5.08333V9.08334ZM7.83333 14.5833H6.91667V10.9167H7.83333C8.31956 10.9167 8.78588 11.1098 9.1297 11.4536C9.47351 11.7975 9.66667 12.2638 9.66667 12.75C9.66667 13.2362 9.47351 13.7026 9.1297 14.0464C8.78588 14.3902 8.31956 14.5833 7.83333 14.5833Z" fill="black"/>
</svg>
