<svg width="22" height="18" viewBox="0 0 22 18" fill="none" xmlns="http://www.w3.org/2000/svg">
<path d="M19.7082 14.5L13.619 9M8.38087 9L2.29162 14.5M1.83325 4.41666L9.31776 9.65582C9.92383 10.0801 10.2269 10.2922 10.5565 10.3744C10.8477 10.4469 11.1522 10.4469 11.4433 10.3744C11.773 10.2922 12.076 10.0801 12.6821 9.65582L20.1666 4.41666M6.23325 16.3333H15.7666C17.3067 16.3333 18.0768 16.3333 18.6651 16.0336C19.1825 15.7699 19.6032 15.3493 19.8669 14.8318C20.1666 14.2435 20.1666 13.4735 20.1666 11.9333V6.06666C20.1666 4.52652 20.1666 3.75645 19.8669 3.16819C19.6032 2.65074 19.1825 2.23005 18.6651 1.9664C18.0768 1.66666 17.3067 1.66666 15.7666 1.66666H6.23325C4.69311 1.66666 3.92304 1.66666 3.33478 1.9664C2.81733 2.23005 2.39664 2.65074 2.13298 3.16819C1.83325 3.75645 1.83325 4.52652 1.83325 6.06666V11.9333C1.83325 13.4735 1.83325 14.2435 2.13298 14.8318C2.39664 15.3493 2.81733 15.7699 3.33478 16.0336C3.92304 16.3333 4.69311 16.3333 6.23325 16.3333Z" stroke="white" stroke-width="2" stroke-linecap="round" stroke-linejoin="round"/>
</svg>
