<svg width="22" height="20" viewBox="0 0 22 20" fill="none" xmlns="http://www.w3.org/2000/svg">
<path d="M15 5C15 4.07003 15 3.60504 14.8978 3.22354C14.6204 2.18827 13.8117 1.37962 12.7765 1.10222C12.395 1 11.93 1 11 1C10.07 1 9.60504 1 9.22354 1.10222C8.18827 1.37962 7.37962 2.18827 7.10222 3.22354C7 3.60504 7 4.07003 7 5M4.2 19H17.8C18.9201 19 19.4802 19 19.908 18.782C20.2843 18.5903 20.5903 18.2843 20.782 17.908C21 17.4802 21 16.9201 21 15.8V8.2C21 7.07989 21 6.51984 20.782 6.09202C20.5903 5.71569 20.2843 5.40973 19.908 5.21799C19.4802 5 18.9201 5 17.8 5H4.2C3.07989 5 2.51984 5 2.09202 5.21799C1.71569 5.40973 1.40973 5.71569 1.21799 6.09202C1 6.51984 1 7.07989 1 8.2V15.8C1 16.9201 1 17.4802 1.21799 17.908C1.40973 18.2843 1.71569 18.5903 2.09202 18.782C2.51984 19 3.0799 19 4.2 19Z" stroke="black" stroke-width="2" stroke-linecap="round" stroke-linejoin="round"/>
</svg>
