<svg width="16" height="21" viewBox="0 0 16 21" fill="none" xmlns="http://www.w3.org/2000/svg">
<path d="M15.89 8.55001C15.8069 8.3851 15.6797 8.24642 15.5226 8.14934C15.3656 8.05226 15.1847 8.00057 15 8.00001H9.99998V2.00001C10.0107 1.7807 9.94896 1.56394 9.82426 1.38321C9.69955 1.20248 9.51883 1.06782 9.30998 1.00001C9.10921 0.933956 8.89267 0.933213 8.69145 0.997892C8.49022 1.06257 8.31467 1.18934 8.18998 1.36001L0.189984 12.36C0.0897493 12.5049 0.0295623 12.6737 0.0155141 12.8493C0.00146601 13.0249 0.0340555 13.2011 0.109984 13.36C0.179906 13.5418 0.301372 13.6991 0.459473 13.8128C0.617575 13.9265 0.805431 13.9916 0.999984 14H5.99998V20C6.00014 20.2109 6.06695 20.4163 6.19088 20.5869C6.3148 20.7576 6.48949 20.8846 6.68998 20.95C6.79046 20.9812 6.89481 20.998 6.99998 21C7.15777 21.0004 7.31341 20.9635 7.45419 20.8922C7.59497 20.821 7.71689 20.7174 7.80998 20.59L15.81 9.59001C15.9177 9.44081 15.9822 9.26477 15.9963 9.08127C16.0104 8.89777 15.9736 8.71394 15.89 8.55001ZM7.99998 16.92V13C7.99998 12.7348 7.89463 12.4804 7.70709 12.2929C7.51955 12.1054 7.2652 12 6.99998 12H2.99998L7.99998 5.08001V9.00001C7.99998 9.26523 8.10534 9.51958 8.29288 9.70712C8.48041 9.89466 8.73477 10 8.99998 10H13L7.99998 16.92Z" fill="#232427"/>
</svg>
