<svg width="14" height="18" viewBox="0 0 14 18" fill="none" xmlns="http://www.w3.org/2000/svg">
<path d="M13.575 6.95832C13.5058 6.82089 13.3998 6.70532 13.2689 6.62442C13.138 6.54352 12.9872 6.50045 12.8333 6.49998H8.66667V1.49999C8.67562 1.31722 8.62416 1.13659 8.52024 0.985985C8.41632 0.835376 8.26571 0.723158 8.09167 0.666652C7.92436 0.611604 7.74391 0.610986 7.57623 0.664885C7.40854 0.718784 7.26224 0.824428 7.15834 0.966652L0.491673 10.1333C0.408145 10.254 0.357989 10.3947 0.346282 10.541C0.334575 10.6874 0.361733 10.8342 0.425007 10.9667C0.483275 11.1181 0.584497 11.2493 0.716248 11.344C0.847999 11.4387 1.00455 11.493 1.16667 11.5H5.33334V16.5C5.33347 16.6757 5.38915 16.8469 5.49242 16.9891C5.59569 17.1313 5.74127 17.2372 5.90834 17.2917C5.99207 17.3176 6.07903 17.3316 6.16667 17.3333C6.29816 17.3337 6.42786 17.3029 6.54518 17.2435C6.6625 17.1841 6.7641 17.0978 6.84167 16.9917L13.5083 7.82499C13.5981 7.70065 13.6519 7.55395 13.6636 7.40103C13.6754 7.24812 13.6447 7.09492 13.575 6.95832ZM7.00001 13.9333V10.6667C7.00001 10.4456 6.91221 10.2337 6.75593 10.0774C6.59965 9.92112 6.38769 9.83332 6.16667 9.83332H2.83334L7.00001 4.06665V7.33332C7.00001 7.55433 7.0878 7.76629 7.24408 7.92257C7.40037 8.07885 7.61233 8.16665 7.83334 8.16665H11.1667L7.00001 13.9333Z" fill="white"/>
</svg>
