<svg width="18" height="22" viewBox="0 0 18 22" fill="none" xmlns="http://www.w3.org/2000/svg">
<path d="M8.31725 20.7978L8.3175 20.798C8.50769 20.9607 8.74973 21.0501 9 21.0501C9.24971 21.0501 9.49123 20.9611 9.68122 20.7991C9.86816 20.6591 11.7038 19.0684 13.4952 16.8388C15.2898 14.6053 17.05 11.7185 17.05 9C17.05 6.86501 16.2019 4.81746 14.6922 3.30779C13.1825 1.79812 11.135 0.95 9 0.95C6.86501 0.95 4.81746 1.79812 3.30779 3.30779C1.79812 4.81746 0.95 6.86501 0.95 9C0.95 11.7186 2.72281 14.6054 4.52358 16.8389C6.32 19.067 8.15351 20.6559 8.3156 20.7964L8.31725 20.7978ZM9.00008 18.5814C7.93897 17.5815 6.46021 16.0215 5.24208 14.2986C4.00937 12.5551 3.05 10.6535 3.05 9C3.05 7.42196 3.67687 5.90856 4.79271 4.79271C5.90856 3.67687 7.42196 3.05 9 3.05C10.578 3.05 12.0914 3.67687 13.2073 4.79271C14.3231 5.90856 14.95 7.42196 14.95 9C14.95 10.6536 13.9906 12.5576 12.7579 14.3024C11.5398 16.0265 10.0611 17.5864 9.00008 18.5814ZM9 4.95C8.19899 4.95 7.41596 5.18753 6.74994 5.63255C6.08392 6.07757 5.56482 6.71009 5.25829 7.45013C4.95175 8.19017 4.87155 9.00449 5.02782 9.79012C5.18409 10.5757 5.56981 11.2974 6.13622 11.8638C6.70262 12.4302 7.42426 12.8159 8.20988 12.9722C8.99551 13.1285 9.80983 13.0482 10.5499 12.7417C11.2899 12.4352 11.9224 11.9161 12.3675 11.2501C12.8125 10.584 13.05 9.80101 13.05 9C13.05 7.92587 12.6233 6.89574 11.8638 6.13622C11.1043 5.3767 10.0741 4.95 9 4.95ZM9 10.95C8.61433 10.95 8.23731 10.8356 7.91664 10.6214C7.59596 10.4071 7.34603 10.1025 7.19843 9.74623C7.05084 9.38992 7.01223 8.99784 7.08747 8.61957C7.16271 8.24131 7.34843 7.89385 7.62114 7.62114C7.89385 7.34843 8.24131 7.16271 8.61957 7.08747C8.99784 7.01223 9.38992 7.05084 9.74623 7.19843C10.1025 7.34603 10.4071 7.59596 10.6214 7.91664C10.8356 8.23731 10.95 8.61433 10.95 9C10.95 9.51717 10.7446 10.0132 10.3789 10.3789C10.0132 10.7446 9.51717 10.95 9 10.95Z" fill="black" stroke="black" stroke-width="0.1"/>
</svg>
