<svg width="24" height="24" viewBox="0 0 24 24" fill="none" xmlns="http://www.w3.org/2000/svg">
<path d="M15.9989 7.9997L7.9989 10.9997" stroke="white" stroke-width="1.75" stroke-linecap="round"/>
<path d="M15.9989 16.0003L7.9989 13.0003" stroke="white" stroke-width="1.75" stroke-linecap="round"/>
<path fill-rule="evenodd" clip-rule="evenodd" d="M6.0011 14.0003C7.10567 14.0003 8.0011 13.1049 8.0011 12.0003C8.0011 10.8957 7.10567 10.0003 6.0011 10.0003C4.89653 10.0003 4.0011 10.8957 4.0011 12.0003C4.0011 13.1049 4.89653 14.0003 6.0011 14.0003Z" stroke="white" stroke-width="1.75"/>
<path fill-rule="evenodd" clip-rule="evenodd" d="M18.0012 8.99969C19.1058 8.99969 20.0012 8.10426 20.0012 6.99969C20.0012 5.89513 19.1058 4.99969 18.0012 4.99969C16.8967 4.99969 16.0012 5.89513 16.0012 6.99969C16.0012 8.10426 16.8967 8.99969 18.0012 8.99969Z" stroke="white" stroke-width="1.75"/>
<path fill-rule="evenodd" clip-rule="evenodd" d="M18.0012 19C19.1058 19 20.0012 18.1046 20.0012 17C20.0012 15.8954 19.1058 15 18.0012 15C16.8967 15 16.0012 15.8954 16.0012 17C16.0012 18.1046 16.8967 19 18.0012 19Z" stroke="white" stroke-width="1.75"/>
</svg>
