<svg width="28" height="28" viewBox="0 0 28 28" fill="none" xmlns="http://www.w3.org/2000/svg">
<path d="M18.6654 9.33301L9.33203 12.833" stroke="black" stroke-width="1.75" stroke-linecap="round"/>
<path d="M18.6654 18.667L9.33203 15.167" stroke="black" stroke-width="1.75" stroke-linecap="round"/>
<path fill-rule="evenodd" clip-rule="evenodd" d="M7.0013 16.3337C8.28997 16.3337 9.33464 15.289 9.33464 14.0003C9.33464 12.7117 8.28997 11.667 7.0013 11.667C5.71264 11.667 4.66797 12.7117 4.66797 14.0003C4.66797 15.289 5.71264 16.3337 7.0013 16.3337Z" stroke="black" stroke-width="1.75"/>
<path fill-rule="evenodd" clip-rule="evenodd" d="M21.0013 10.4997C22.29 10.4997 23.3346 9.45501 23.3346 8.16634C23.3346 6.87768 22.29 5.83301 21.0013 5.83301C19.7126 5.83301 18.668 6.87768 18.668 8.16634C18.668 9.45501 19.7126 10.4997 21.0013 10.4997Z" stroke="black" stroke-width="1.75"/>
<path fill-rule="evenodd" clip-rule="evenodd" d="M21.0013 22.1667C22.29 22.1667 23.3346 21.122 23.3346 19.8333C23.3346 18.5447 22.29 17.5 21.0013 17.5C19.7126 17.5 18.668 18.5447 18.668 19.8333C18.668 21.122 19.7126 22.1667 21.0013 22.1667Z" stroke="black" stroke-width="1.75"/>
</svg>
